<svg id="visual" viewBox="0 0 2560 100" width="2560" height="100" xmlns="http://www.w3.org/2000/svg" xmlns:xlink="http://www.w3.org/1999/xlink" version="1.1"><rect x="0" y="0" width="2560" height="100" fill="#ffffff"></rect><path d="M0 56L53.3 49.8C106.7 43.7 213.3 31.3 320 25.5C426.7 19.7 533.3 20.3 640 27.7C746.7 35 853.3 49 960 47.8C1066.7 46.7 1173.3 30.3 1280 24.2C1386.7 18 1493.3 22 1600 29C1706.7 36 1813.3 46 1920 49.7C2026.7 53.3 2133.3 50.7 2240 46.2C2346.7 41.7 2453.3 35.3 2506.7 32.2L2560 29L2560 0L2506.7 0C2453.3 0 2346.7 0 2240 0C2133.3 0 2026.7 0 1920 0C1813.3 0 1706.7 0 1600 0C1493.3 0 1386.7 0 1280 0C1173.3 0 1066.7 0 960 0C853.3 0 746.7 0 640 0C533.3 0 426.7 0 320 0C213.3 0 106.7 0 53.3 0L0 0Z" fill="#E7ECEF" stroke-linecap="round" stroke-linejoin="miter"></path></svg>