<svg id="visual" viewBox="0 0 2560 100" width="2560" height="100" xmlns="http://www.w3.org/2000/svg" xmlns:xlink="http://www.w3.org/1999/xlink" version="1.1"><rect x="0" y="0" width="2560" height="100" fill="#ffffff"></rect><path d="M0 42L53.3 48.2C106.7 54.3 213.3 66.7 320 72.5C426.7 78.3 533.3 77.7 640 70.3C746.7 63 853.3 49 960 50.2C1066.7 51.3 1173.3 67.7 1280 73.8C1386.7 80 1493.3 76 1600 69C1706.7 62 1813.3 52 1920 48.3C2026.7 44.7 2133.3 47.3 2240 51.8C2346.7 56.3 2453.3 62.7 2506.7 65.8L2560 69L2560 101L2506.7 101C2453.3 101 2346.7 101 2240 101C2133.3 101 2026.7 101 1920 101C1813.3 101 1706.7 101 1600 101C1493.3 101 1386.7 101 1280 101C1173.3 101 1066.7 101 960 101C853.3 101 746.7 101 640 101C533.3 101 426.7 101 320 101C213.3 101 106.7 101 53.3 101L0 101Z" fill="#E7ECEF" stroke-linecap="round" stroke-linejoin="miter"></path></svg>